<mxfile host="app.diagrams.net" agent="Mozilla/5.0 (Macintosh; Intel Mac OS X 10_15_7) AppleWebKit/537.36 (KHTML, like Gecko) Chrome/130.0.0.0 Safari/537.36" version="24.8.3">
  <diagram name="Page-1" id="wnQDcvPUCrhot3GAmTWD">
    <mxGraphModel dx="1468" dy="994" grid="1" gridSize="10" guides="1" tooltips="1" connect="1" arrows="1" fold="1" page="1" pageScale="1" pageWidth="827" pageHeight="1169" math="0" shadow="0">
      <root>
        <mxCell id="0" />
        <mxCell id="1" parent="0" />
        <mxCell id="UtpYLeqC0Dc7oDCE325W-1" value="START" style="ellipse;whiteSpace=wrap;html=1;" vertex="1" parent="1">
          <mxGeometry x="354" width="120" height="80" as="geometry" />
        </mxCell>
        <mxCell id="UtpYLeqC0Dc7oDCE325W-2" value="" style="endArrow=none;html=1;rounded=0;" edge="1" parent="1">
          <mxGeometry width="50" height="50" relative="1" as="geometry">
            <mxPoint x="420" y="180" as="sourcePoint" />
            <mxPoint x="420" y="80" as="targetPoint" />
          </mxGeometry>
        </mxCell>
        <mxCell id="UtpYLeqC0Dc7oDCE325W-3" value="input three sides of triangle&amp;nbsp;&lt;div&gt;a,b,c&lt;/div&gt;" style="shape=parallelogram;perimeter=parallelogramPerimeter;whiteSpace=wrap;html=1;fixedSize=1;" vertex="1" parent="1">
          <mxGeometry x="310" y="180" width="220" height="60" as="geometry" />
        </mxCell>
        <mxCell id="UtpYLeqC0Dc7oDCE325W-4" value="" style="endArrow=none;html=1;rounded=0;" edge="1" parent="1">
          <mxGeometry width="50" height="50" relative="1" as="geometry">
            <mxPoint x="420" y="310" as="sourcePoint" />
            <mxPoint x="420" y="240" as="targetPoint" />
          </mxGeometry>
        </mxCell>
        <mxCell id="UtpYLeqC0Dc7oDCE325W-6" style="edgeStyle=orthogonalEdgeStyle;rounded=0;orthogonalLoop=1;jettySize=auto;html=1;" edge="1" parent="1" source="UtpYLeqC0Dc7oDCE325W-5">
          <mxGeometry relative="1" as="geometry">
            <mxPoint x="120" y="530" as="targetPoint" />
          </mxGeometry>
        </mxCell>
        <mxCell id="UtpYLeqC0Dc7oDCE325W-8" style="edgeStyle=orthogonalEdgeStyle;rounded=0;orthogonalLoop=1;jettySize=auto;html=1;" edge="1" parent="1" source="UtpYLeqC0Dc7oDCE325W-5">
          <mxGeometry relative="1" as="geometry">
            <mxPoint x="680" y="540" as="targetPoint" />
          </mxGeometry>
        </mxCell>
        <mxCell id="UtpYLeqC0Dc7oDCE325W-5" value="if side a == b == c" style="rhombus;whiteSpace=wrap;html=1;" vertex="1" parent="1">
          <mxGeometry x="360" y="310" width="120" height="120" as="geometry" />
        </mxCell>
        <mxCell id="UtpYLeqC0Dc7oDCE325W-7" value="print(equilateral triangle)" style="shape=parallelogram;perimeter=parallelogramPerimeter;whiteSpace=wrap;html=1;fixedSize=1;" vertex="1" parent="1">
          <mxGeometry x="30" y="530" width="180" height="60" as="geometry" />
        </mxCell>
        <mxCell id="UtpYLeqC0Dc7oDCE325W-10" value="Yes" style="text;html=1;align=center;verticalAlign=middle;resizable=0;points=[];autosize=1;strokeColor=none;fillColor=none;" vertex="1" parent="1">
          <mxGeometry x="130" y="338" width="40" height="30" as="geometry" />
        </mxCell>
        <mxCell id="UtpYLeqC0Dc7oDCE325W-11" value="No" style="text;html=1;align=center;verticalAlign=middle;resizable=0;points=[];autosize=1;strokeColor=none;fillColor=none;" vertex="1" parent="1">
          <mxGeometry x="640" y="338" width="40" height="30" as="geometry" />
        </mxCell>
        <mxCell id="UtpYLeqC0Dc7oDCE325W-13" style="edgeStyle=orthogonalEdgeStyle;rounded=0;orthogonalLoop=1;jettySize=auto;html=1;" edge="1" parent="1" source="UtpYLeqC0Dc7oDCE325W-12">
          <mxGeometry relative="1" as="geometry">
            <mxPoint x="440" y="770" as="targetPoint" />
          </mxGeometry>
        </mxCell>
        <mxCell id="UtpYLeqC0Dc7oDCE325W-15" style="edgeStyle=orthogonalEdgeStyle;rounded=0;orthogonalLoop=1;jettySize=auto;html=1;" edge="1" parent="1" source="UtpYLeqC0Dc7oDCE325W-12">
          <mxGeometry relative="1" as="geometry">
            <mxPoint x="870" y="770" as="targetPoint" />
          </mxGeometry>
        </mxCell>
        <mxCell id="UtpYLeqC0Dc7oDCE325W-12" value="sideA == sideB or sideA == sideC or sideB == sideC :" style="rhombus;whiteSpace=wrap;html=1;" vertex="1" parent="1">
          <mxGeometry x="590" y="520" width="180" height="170" as="geometry" />
        </mxCell>
        <mxCell id="UtpYLeqC0Dc7oDCE325W-14" value="print(Isosceles triangle)" style="shape=parallelogram;perimeter=parallelogramPerimeter;whiteSpace=wrap;html=1;fixedSize=1;" vertex="1" parent="1">
          <mxGeometry x="340" y="770" width="180" height="60" as="geometry" />
        </mxCell>
        <mxCell id="UtpYLeqC0Dc7oDCE325W-16" value="else&lt;div&gt;print(Scalene Triangle)&lt;/div&gt;" style="shape=parallelogram;perimeter=parallelogramPerimeter;whiteSpace=wrap;html=1;fixedSize=1;" vertex="1" parent="1">
          <mxGeometry x="780" y="770" width="170" height="60" as="geometry" />
        </mxCell>
        <mxCell id="UtpYLeqC0Dc7oDCE325W-17" value="Yes" style="text;html=1;align=center;verticalAlign=middle;resizable=0;points=[];autosize=1;strokeColor=none;fillColor=none;" vertex="1" parent="1">
          <mxGeometry x="440" y="578" width="40" height="30" as="geometry" />
        </mxCell>
        <mxCell id="UtpYLeqC0Dc7oDCE325W-18" value="No" style="text;html=1;align=center;verticalAlign=middle;resizable=0;points=[];autosize=1;strokeColor=none;fillColor=none;" vertex="1" parent="1">
          <mxGeometry x="840" y="578" width="40" height="30" as="geometry" />
        </mxCell>
        <mxCell id="UtpYLeqC0Dc7oDCE325W-19" value="" style="endArrow=none;html=1;rounded=0;" edge="1" parent="1">
          <mxGeometry width="50" height="50" relative="1" as="geometry">
            <mxPoint x="440" y="990" as="sourcePoint" />
            <mxPoint x="440" y="830" as="targetPoint" />
          </mxGeometry>
        </mxCell>
        <mxCell id="UtpYLeqC0Dc7oDCE325W-20" value="" style="endArrow=none;html=1;rounded=0;" edge="1" parent="1">
          <mxGeometry width="50" height="50" relative="1" as="geometry">
            <mxPoint x="870" y="1000" as="sourcePoint" />
            <mxPoint x="870" y="830" as="targetPoint" />
          </mxGeometry>
        </mxCell>
        <mxCell id="UtpYLeqC0Dc7oDCE325W-21" value="" style="endArrow=none;html=1;rounded=0;" edge="1" parent="1">
          <mxGeometry width="50" height="50" relative="1" as="geometry">
            <mxPoint x="120" y="1030" as="sourcePoint" />
            <mxPoint x="120" y="590" as="targetPoint" />
          </mxGeometry>
        </mxCell>
        <mxCell id="UtpYLeqC0Dc7oDCE325W-22" value="" style="endArrow=none;html=1;rounded=0;entryX=0.036;entryY=0.7;entryDx=0;entryDy=0;entryPerimeter=0;" edge="1" parent="1" target="UtpYLeqC0Dc7oDCE325W-24">
          <mxGeometry width="50" height="50" relative="1" as="geometry">
            <mxPoint x="120" y="1030" as="sourcePoint" />
            <mxPoint x="660" y="1030" as="targetPoint" />
          </mxGeometry>
        </mxCell>
        <mxCell id="UtpYLeqC0Dc7oDCE325W-23" value="" style="endArrow=none;html=1;rounded=0;entryX=0.057;entryY=0.3;entryDx=0;entryDy=0;entryPerimeter=0;" edge="1" parent="1" target="UtpYLeqC0Dc7oDCE325W-24">
          <mxGeometry width="50" height="50" relative="1" as="geometry">
            <mxPoint x="440" y="990" as="sourcePoint" />
            <mxPoint x="660" y="990" as="targetPoint" />
          </mxGeometry>
        </mxCell>
        <mxCell id="UtpYLeqC0Dc7oDCE325W-24" value="connector" style="ellipse;whiteSpace=wrap;html=1;" vertex="1" parent="1">
          <mxGeometry x="660" y="960" width="140" height="100" as="geometry" />
        </mxCell>
        <mxCell id="UtpYLeqC0Dc7oDCE325W-28" value="" style="endArrow=none;html=1;rounded=0;exitX=1;exitY=0.4;exitDx=0;exitDy=0;exitPerimeter=0;" edge="1" parent="1" source="UtpYLeqC0Dc7oDCE325W-24">
          <mxGeometry width="50" height="50" relative="1" as="geometry">
            <mxPoint x="860" y="1090" as="sourcePoint" />
            <mxPoint x="870" y="1000" as="targetPoint" />
          </mxGeometry>
        </mxCell>
        <mxCell id="UtpYLeqC0Dc7oDCE325W-29" value="" style="endArrow=none;html=1;rounded=0;" edge="1" parent="1">
          <mxGeometry width="50" height="50" relative="1" as="geometry">
            <mxPoint x="730" y="1120" as="sourcePoint" />
            <mxPoint x="730" y="1060" as="targetPoint" />
          </mxGeometry>
        </mxCell>
        <mxCell id="UtpYLeqC0Dc7oDCE325W-30" value="stop" style="ellipse;whiteSpace=wrap;html=1;" vertex="1" parent="1">
          <mxGeometry x="670" y="1120" width="120" height="80" as="geometry" />
        </mxCell>
      </root>
    </mxGraphModel>
  </diagram>
</mxfile>
